<?xml version="1.0" encoding="UTF-8"?>
<svg id="Laag_1" data-name="Laag 1" xmlns="http://www.w3.org/2000/svg" viewBox="0 0 200 200">
  <defs>
    <style>
      .cls-1 {
        fill: #333;
      }
    </style>
  </defs>
  <path class="cls-1" d="m100,0h0C100,55.19,55.19,100,0,100h0C0,44.81,44.81,0,100,0Z"/>
  <path class="cls-1" d="m100,0h0c55.19,0,100,44.81,100,100h0c-55.19,0-100-44.81-100-100h0Z"/>
  <path class="cls-1" d="m100,100h0C100,155.19,55.19,200,0,200h0c0-55.19,44.81-100,100-100Z"/>
  <path class="cls-1" d="m100,100h0c55.19,0,100,44.81,100,100h0c-55.19,0-100-44.81-100-100h0Z"/>
</svg>