<?xml version="1.0" encoding="UTF-8"?>
<svg id="Laag_1" data-name="Laag 1" xmlns="http://www.w3.org/2000/svg" viewBox="0 0 467.17 445.09">
  <defs>
    <style>
      .cls-1 {
        fill: #2e2e2f;
        stroke-width: 0px;
      }
    </style>
  </defs>
  <path class="cls-1" d="m241.11,5.46l49.72,153.03c1.06,3.26,4.09,5.46,7.52,5.46h160.9c7.66,0,10.84,9.8,4.65,14.3l-130.17,94.58c-2.77,2.01-3.93,5.58-2.87,8.84l49.72,153.03c2.37,7.28-5.97,13.34-12.17,8.84l-130.17-94.58c-2.77-2.01-6.52-2.01-9.3,0l-130.17,94.58c-6.2,4.5-14.53-1.56-12.17-8.84l49.72-153.03c1.06-3.26-.1-6.83-2.87-8.84L3.27,178.26c-6.2-4.5-3.01-14.3,4.65-14.3h160.9c3.43,0,6.46-2.21,7.52-5.46L226.07,5.46c2.37-7.28,12.67-7.28,15.04,0Z"/>
</svg>