<?xml version="1.0" encoding="utf-8"?>
<!-- Generator: Adobe Illustrator 26.5.2, SVG Export Plug-In . SVG Version: 6.00 Build 0)  -->
<svg version="1.1" id="Layer_1" xmlns="http://www.w3.org/2000/svg" xmlns:xlink="http://www.w3.org/1999/xlink" x="0px" y="0px"
	 viewBox="0 0 200 200" style="enable-background:new 0 0 200 200;" xml:space="preserve">
<style type="text/css">
	.st0{fill:none;}
</style>
<rect x="176.42" y="99.27" class="st0" width="3.08" height="2.2"/>
<g>
	<path d="M115.25,96.11V28.54c18.95,2.28,35.29,12.57,49,30.83l20.55-19.69c-11.96-13.68-24.12-23.59-36.51-29.69
		c-10.39-4.86-21.38-7.8-33.04-8.77c-2.89-0.25-5.8-0.38-8.77-0.38c-6.59,0-12.92,0.56-19.05,1.65
		c-19.69,3.5-36.92,12.64-51.71,27.44C16.34,49.21,6.66,72.73,6.66,100.44c0,27.14,9.53,50.39,28.58,69.78
		c15.02,15.2,32.41,24.42,52.19,27.62c5.32,0.89,10.79,1.32,16.44,1.32c3.9,0,7.68-0.2,11.38-0.61c22.32-2.43,41.1-12.21,56.3-29.31
		c7.85-8.92,13.4-18.5,16.72-28.71c3.37-11.05,5.07-23.77,5.07-38.11v-6.31H115.25z M58.5,153.02
		c-15.28-13.78-22.9-31.29-22.9-52.57c0-20.62,6.84-37.78,20.55-51.48c9.02-9.17,19.43-15.33,31.29-18.44v139.2
		C77.3,166.8,67.65,161.23,58.5,153.02z M143.1,157.83c-8.49,7.17-17.76,11.68-27.84,13.48V123.2h46.77
		C160.71,136.65,154.4,148.18,143.1,157.83z"/>
</g>
</svg>
