<?xml version="1.0" encoding="utf-8"?>
<svg viewBox="124.194 197.537 186.68 198.32" xmlns="http://www.w3.org/2000/svg">
  <path d="M 232.784 292.807 L 232.784 225.237 C 251.734 227.517 268.074 237.807 281.784 256.067 L 302.334 236.377 C 290.374 222.697 278.214 212.787 265.824 206.687 C 255.434 201.827 244.444 198.887 232.784 197.917 C 229.894 197.667 226.984 197.537 224.014 197.537 C 217.424 197.537 211.094 198.097 204.964 199.187 C 185.274 202.687 168.044 211.827 153.254 226.627 C 133.874 245.907 124.194 269.427 124.194 297.137 C 124.194 324.277 133.724 347.527 152.774 366.917 C 167.794 382.117 185.184 391.337 204.964 394.537 C 210.284 395.427 215.754 395.857 221.404 395.857 C 225.304 395.857 229.084 395.657 232.784 395.247 C 255.104 392.817 273.884 383.037 289.084 365.937 C 296.934 357.017 302.484 347.437 305.804 337.227 C 309.174 326.177 310.874 313.457 310.874 299.117 L 310.874 292.807 L 232.784 292.807 L 232.784 292.807 Z M 176.034 349.717 C 160.754 335.937 153.134 318.427 153.134 297.147 C 153.134 276.527 159.974 259.367 173.684 245.667 C 182.704 236.497 193.114 230.337 204.974 227.227 L 204.974 366.427 C 194.834 363.497 185.184 357.927 176.034 349.717 Z M 260.634 354.527 C 252.144 361.697 242.874 366.207 232.794 368.007 L 232.794 319.897 L 279.564 319.897 C 278.244 333.347 271.934 344.877 260.634 354.527 Z" style="fill: rgb(31, 51, 88);"/>
</svg>