<?xml version="1.0" encoding="UTF-8"?>
<svg id="Laag_1" data-name="Laag 1" xmlns="http://www.w3.org/2000/svg" viewBox="0 0 286.15 71.47" class="jouw-svg-klasse">
  <defs>
    <style>
      .cls-1 {
        fill: #5745ff;
        stroke-width: 0px;
      }
    </style>
  </defs>
  <g>
    <path class="cls-1" d="m131.64,40.85c-1.15,0-2.14-.16-2.97-.49-.83-.33-1.52-.79-2.05-1.37s-.92-1.29-1.17-2.11c-.25-.82-.37-1.72-.37-2.71,0-1.97.51-3.57,1.54-4.8,1.02-1.23,2.7-1.84,5.02-1.84h9.76c1.64,0,2.98.51,4.02,1.54,1.04,1.02,1.56,2.45,1.56,4.28v8.98c0,1.78-.51,3.2-1.52,4.26-1.01,1.07-2.36,1.6-4.06,1.6h-15.01v-2.83h15.01c.96,0,1.63-.27,2.03-.8.4-.53.59-1.28.59-2.24v-1.48h-12.38Zm-.29-10.58c-1.04,0-1.86.27-2.46.82-.6.55-.9,1.57-.9,3.07s.3,2.53.9,3.07c.6.55,1.42.82,2.46.82h12.67v-4.71c0-.9-.2-1.64-.59-2.21s-1.07-.86-2.03-.86h-10.05Z"/>
    <path class="cls-1" d="m153.91,32.73c0,1.48.39,2.71,1.17,3.69.78.98,2.03,1.48,3.75,1.48h8.28v-10.37h2.95v13.32h-11.23c-2.6,0-4.56-.74-5.88-2.21-1.33-1.48-1.99-3.44-1.99-5.9v-5.21h2.95v5.21Z"/>
    <path class="cls-1" d="m176.87,32.73c0,1.48.39,2.71,1.17,3.69.78.98,2.03,1.48,3.75,1.48h8.28v-10.37h2.95v13.32h-11.23c-2.6,0-4.56-.74-5.88-2.21-1.33-1.48-1.99-3.44-1.99-5.9v-5.21h2.95v5.21Z"/>
    <path class="cls-1" d="m200.89,30.32c-.79,0-1.37.1-1.72.29-.36.19-.53.64-.53,1.35,0,.66.21,1.11.62,1.35s1.01.37,1.8.37h12.87c1.04,0,1.85.31,2.42.92.57.62.86,1.5.86,2.64,0,1.04-.29,1.9-.86,2.58-.57.68-1.38,1.03-2.42,1.03h-18v-2.75h17.1c.41,0,.74-.04.98-.12s.37-.33.37-.74c0-.38-.12-.63-.37-.74s-.57-.16-.98-.16h-13.04c-1.39,0-2.44-.44-3.14-1.31-.7-.87-1.05-1.94-1.05-3.2s.35-2.36,1.05-3.14c.7-.78,1.74-1.17,3.14-1.17h16.4v2.79h-15.5Z"/>
    <path class="cls-1" d="m224.34,13.63v27.22h-2.95V13.63h2.95Z"/>
    <path class="cls-1" d="m233.08,40.85c-1.48,0-2.61-.34-3.4-1.03-.79-.68-1.19-1.74-1.19-3.16s.4-2.48,1.19-3.18c.79-.7,1.93-1.05,3.4-1.05h14.27c-.25-1.42-1.09-2.13-2.54-2.13h-15.01v-2.79h15.01c1.67,0,3.01.53,4.04,1.58,1.03,1.05,1.54,2.47,1.54,4.24v7.5h-17.3Zm-1.68-4.18c0,.55.14.92.41,1.13s.7.31,1.27.31h14.35v-2.87h-14.35c-.57,0-1,.1-1.27.31s-.41.58-.41,1.13Z"/>
    <path class="cls-1" d="m254.4,40.85V13.63h2.95v13.9h11.15c2.32,0,4,.62,5.02,1.84,1.02,1.23,1.54,2.83,1.54,4.8,0,.98-.12,1.89-.37,2.71-.25.82-.64,1.52-1.17,2.11-.53.59-1.22,1.04-2.05,1.37s-1.82.49-2.97.49h-14.1Zm2.95-10.58v7.79h11.44c1.04,0,1.86-.27,2.46-.82.6-.55.9-1.57.9-3.07s-.3-2.53-.9-3.07-1.42-.82-2.46-.82h-11.44Z"/>
  </g>
  <path class="cls-1" d="m139.67,71.47C104.5,53.25,47.21,35.74,0,35.74c47.21,0,104.5-17.52,139.67-35.74-13.44,8.36-40.38,16.94-40.56,35.74.18,18.8,27.13,27.38,40.56,35.74Z"/>
</svg>