<?xml version="1.0" encoding="UTF-8"?>
<svg id="Laag_1" data-name="Laag 1" xmlns="http://www.w3.org/2000/svg" viewBox="0 0 500 487.84">
  <defs>
    <style>
      .cls-1 {
        fill: #e9e8e8;
        stroke-width: 0px;
      }
    </style>
  </defs>
  <path class="cls-1" d="m500,133.22c0,26.27-7.6,50.74-20.71,71.37-1.02,1.62-2.07,3.2-3.18,4.76l-9.51,12.08-205.82,261.29c-5.38,6.83-15.72,6.82-21.1,0L36.85,225.21l-.07-.07-15.6-19.81-.02-.03C8.69,185.95,1.09,163.17.11,138.67-2.94,62.97,58.51-.58,134.28,0c43.49.34,82.02,21.51,106.09,54.04,4.77,6.44,14.47,6.48,19.23.04C283.86,21.27,322.83,0,366.78,0c73.56,0,133.22,59.64,133.22,133.22Z"/>
</svg>