<?xml version="1.0" encoding="UTF-8"?>
<svg id="Laag_1" data-name="Laag 1" xmlns="http://www.w3.org/2000/svg" viewBox="0 0 500 377.92">
  <defs>
    <style>
      .cls-1 {
        fill: #e8e8e8;
        stroke-width: 0px;
      }
    </style>
  </defs>
  <path class="cls-1" d="m113.6,110.23h251.21c72.74,0,133.22,57.5,135.15,130.21,2,75.58-58.67,137.48-133.8,137.48h-206.35c-25.52,0-46.21-20.69-46.21-46.21h0s251.48,0,251.48,0c47.4,0,87.06-37.23,88.66-84.6,1.68-49.78-38.18-90.68-87.58-90.68h-206.35c-25.52,0-46.21-20.69-46.21-46.21h0Z"/>
  <path class="cls-1" d="m340.19,267.69h-204.9c-73.97,0-135.04-59.4-135.3-133.38C-.25,60.18,59.77,0,133.84,0h206.35c25.52,0,46.21,20.69,46.21,46.21h0s-251.45,0-251.45,0c-48.32,0-88.38,38.65-88.74,86.97-.37,48.71,39.01,88.31,87.63,88.31h252.56s0,0,0,0c0,25.52-20.69,46.21-46.21,46.21Z"/>
  <rect class="cls-1" x="330.77" y="165.86" width="65.05" height="46.21" transform="translate(174.33 552.26) rotate(-90)"/>
</svg>