<?xml version="1.0" encoding="UTF-8"?>
<svg id="Laag_1" data-name="Laag 1" xmlns="http://www.w3.org/2000/svg" viewBox="0 0 242.96 349.12">
  <defs>
    <style>
      .cls-1 {
        fill: #e9e8e8;
        stroke-width: 0px;
      }
    </style>
  </defs>
  <path class="cls-1" d="m116.97.08C52.98,2.4,1.4,54.81.03,118.83c-.55,25.89,7.01,50,20.31,69.94l48.54,79.94,46.86,77.19c2.61,4.29,8.83,4.29,11.44,0l46.86-77.19,48.04-79.12c13.18-19.42,20.88-42.87,20.88-68.11C242.96,52.89,186.11-2.42,116.97.08Zm5.65,57.52c34.95.59,63.66,28.85,64.74,63.79.82,26.42-13.9,49.47-35.7,60.72-9.04,4.67-19.31,7.3-30.18,7.3s-21.14-2.63-30.18-7.3c-21.22-10.95-35.73-33.08-35.73-58.61,0-36.78,30.12-66.52,67.04-65.9Z"/>
</svg>