<link rel="stylesheet" href="main.css">
<?xml version="1.0" encoding="UTF-8"?>
<svg id="Laag_1" data-name="Laag 1" xmlns="http://www.w3.org/2000/svg" viewBox="0 0 500 310.97">
  <path class="icon-cloud-b" d="m500,193.05c0,65.12-52.79,117.92-117.9,117.92H117.9C52.79,310.97,0,258.18,0,193.05c0-18.08,4.07-35.21,11.36-50.53,18.92-39.84,59.52-67.38,106.55-67.38,6.17,0,12.22.48,18.14,1.39C155.4,31.52,200.17,0,252.29,0s96.5,31.25,115.99,75.97c4.53-.55,9.14-.82,13.82-.82,47.03,0,87.63,27.54,106.55,67.38,7.29,15.32,11.36,32.45,11.36,50.53Z"/>
</svg>